<?xml version="1.0" ?><svg id="svgGmail" height="60px" version="1.1" viewBox="0 0 60 60" width="60px" xmlns="http://www.w3.org/2000/svg" xmlns:sketch="http://www.bohemiancoding.com/sketch/ns" xmlns:xlink="http://www.w3.org/1999/xlink"><title/><desc/><defs/><g fill="none" fill-rule="evenodd" id="soical" stroke="none" stroke-width="1"><g id="social" transform="translate(-873.000000, -638.000000)"><g id="slices" transform="translate(173.000000, 138.000000)"/><g fill="#3498DB" id="square-flat" transform="translate(173.000000, 138.000000)"><path d="M702.995937,500 L757.004063,500 C758.658673,500 760,501.33731 760,502.995937 L760,557.004063 C760,558.658673 758.66269,560 757.004063,560 L702.995937,560 C701.341327,560 700,558.66269 700,557.004063 L700,502.995937 C700,501.341327 701.33731,500 702.995937,500 Z" id="square-58"/></g><g fill="#000000" fill-opacity="0.4" id="square-gloss" transform="translate(173.000000, 138.000000)"><path d="M759.123264,500.876736 C759.664979,501.418333 760,502.167008 760,502.995937 L760,557.004063 C760,558.658673 758.66269,560 757.004063,560 L702.995937,560 C702.168249,560 701.418954,559.665363 700.876736,559.123264 L759.123264,500.876736 Z" id="square-58"/></g><g fill="#FFFFFF" id="icon" transform="translate(182.000000, 150.000000)"><path d="M721,521.461538 L738.307692,506.461538 L703.692308,506.461538 L721,521.461538 Z M716.325177,519.801054 L721,523.63824 L725.601581,519.801054 L738.307692,530.692308 L703.692308,530.692308 L716.325177,519.801054 Z M702.538462,529.538462 L702.538462,507.615385 L715.230769,518.576923 L702.538462,529.538462 Z M739.461538,529.538462 L739.461538,507.615385 L726.769231,518.576923 L739.461538,529.538462 Z" id="mail"/></g></g></g></svg>